<?xml version="1.0" standalone="no"?>
<!DOCTYPE svg PUBLIC "-//W3C//DTD SVG 20010904//EN"
 "http://www.w3.org/TR/2001/REC-SVG-20010904/DTD/svg10.dtd">
<svg version="1.0" xmlns="http://www.w3.org/2000/svg"
 width="776.000000pt" height="776.000000pt" viewBox="0 0 776.000000 776.000000"
 preserveAspectRatio="xMidYMid meet">
<metadata>
Created by potrace 1.14, written by Peter Selinger 2001-2017
</metadata>
<g transform="translate(0.000000,776.000000) scale(0.100000,-0.100000)"
fill="#000000" stroke="none">
<path d="M3598 7720 c-220 -16 -542 -70 -728 -121 -1388 -384 -2437 -1457
-2764 -2829 -77 -324 -101 -535 -100 -900 0 -307 17 -484 70 -745 123 -606
396 -1176 799 -1672 156 -192 455 -477 670 -640 411 -310 975 -569 1477 -678
557 -120 1089 -125 1643 -14 657 131 1297 450 1797 896 761 679 1209 1579
1289 2593 14 178 6 537 -16 710 -44 350 -121 658 -242 965 -386 980 -1170
1765 -2158 2163 -336 135 -648 214 -1020 257 -157 19 -556 27 -717 15z m632
-445 c732 -84 1460 -431 2008 -959 222 -214 470 -527 634 -801 62 -103 188
-353 188 -373 0 -4 9 -26 20 -49 24 -51 49 -117 61 -167 5 -21 14 -47 20 -58
7 -13 7 -23 0 -32 -6 -8 -9 -20 -5 -29 3 -8 1 -17 -4 -21 -9 -5 -41 53 -48 88
-2 11 -8 24 -14 30 -5 5 -10 16 -10 23 0 33 -224 485 -250 503 -3 3 -15 21
-26 40 -10 19 -23 39 -27 45 -5 5 -21 29 -35 51 -63 98 -106 156 -119 161 -7
3 -11 9 -8 13 3 4 -3 14 -11 21 -9 8 -27 30 -39 49 -13 19 -31 44 -42 55 -10
11 -50 58 -89 105 -118 141 -211 229 -237 224 -19 -4 -20 -3 -3 4 18 8 16 12
-23 49 -30 28 -50 39 -68 37 -35 -4 -42 -14 -10 -14 15 0 27 -4 27 -8 0 -11
-69 -12 -76 -1 -3 5 0 9 6 9 6 0 8 4 5 10 -4 6 -11 5 -20 -3 -8 -7 -10 -16 -4
-23 6 -7 6 -22 -1 -38 -11 -29 -25 -36 -18 -8 3 9 -4 26 -15 37 -20 20 -20 20
-14 -17 3 -21 2 -38 -4 -38 -5 0 -9 -7 -9 -15 0 -19 0 -19 40 1 23 12 38 14
48 7 36 -22 28 -29 -92 -82 -5 -2 -6 6 -3 18 4 15 -1 28 -14 39 -19 16 -19 17
2 33 l21 16 -23 -1 c-20 -1 -24 4 -24 29 0 23 4 30 20 30 12 0 21 8 23 20 2
15 1 16 -6 7 -5 -8 -12 -13 -16 -13 -24 3 -32 -3 -42 -34 -6 -19 -7 -35 -3
-35 5 0 9 -13 9 -30 0 -23 4 -30 20 -30 23 0 27 -15 5 -24 -8 -3 -15 -12 -15
-20 0 -9 -10 -20 -21 -27 -23 -12 -24 -5 -3 46 7 18 6 18 -9 7 -9 -8 -25 -11
-37 -7 -11 4 -20 2 -20 -4 0 -6 9 -11 20 -11 11 0 20 -5 20 -11 0 -6 -12 -9
-26 -7 -21 2 -28 9 -30 31 -3 26 -1 28 34 25 36 -3 37 -2 35 31 -1 18 -7 38
-15 42 -10 7 -8 9 6 9 11 0 17 3 13 6 -3 4 -18 3 -32 0 -20 -5 -25 -11 -20
-26 4 -14 2 -20 -8 -20 -8 0 -14 6 -13 14 0 8 -3 15 -9 15 -5 0 -9 -16 -8 -37
1 -20 -1 -27 -4 -14 -6 29 -52 31 -60 3 -3 -11 -11 -22 -19 -25 -18 -7 -45 4
-38 15 3 5 -6 13 -20 19 -25 9 -37 40 -16 40 6 0 10 -6 10 -14 0 -8 10 -16 23
-18 15 -2 21 -9 19 -20 -2 -10 1 -18 7 -18 11 0 33 59 25 71 -3 5 2 9 11 9 9
0 14 -4 11 -9 -3 -5 1 -12 10 -15 11 -4 14 -1 12 12 -3 12 -13 17 -37 15 -29
-1 -32 1 -19 13 17 18 128 30 128 15 0 -6 7 -11 15 -11 26 0 16 19 -12 26 -16
3 -33 7 -39 9 -6 2 -28 0 -48 -5 -44 -10 -52 14 -8 25 15 4 21 10 14 12 -20 7
-62 -25 -56 -42 6 -14 -6 -21 -61 -39 -16 -5 -21 -1 -22 14 -1 16 2 20 17 15
13 -4 22 1 29 14 14 25 14 31 1 31 -5 0 -10 -7 -10 -16 0 -10 -6 -14 -15 -10
-9 3 -21 -4 -31 -19 -13 -20 -19 -22 -35 -12 -10 6 -19 17 -19 24 0 14 0 14
-47 18 -30 2 -32 1 -27 -21 9 -36 -11 -54 -54 -47 -20 3 -44 12 -52 21 -13 13
-13 14 3 9 10 -4 16 -3 12 2 -3 5 10 9 27 8 25 -2 32 -6 30 -19 -2 -10 2 -18
8 -18 5 0 10 8 11 18 0 9 2 27 3 40 2 12 -3 22 -10 22 -7 0 -15 6 -18 13 -3 6
-4 1 -3 -13 2 -21 -3 -25 -30 -28 -17 -2 -43 -15 -57 -29 -27 -27 -28 -45 -1
-23 8 7 15 10 15 7 0 -3 3 -13 6 -22 6 -14 2 -16 -22 -13 -24 2 -29 0 -26 -17
2 -19 2 -19 -9 -2 -8 14 -7 24 5 43 21 31 16 30 -66 -8 -53 -24 -70 -37 -75
-57 -3 -14 -11 -29 -17 -33 -8 -6 -7 -10 2 -16 24 -16 -13 -33 -73 -33 -44 -1
-60 3 -67 15 -5 9 -12 15 -16 12 -4 -2 -8 8 -9 22 -3 55 -139 139 -175 108 -7
-6 -10 -7 -6 -2 4 5 -4 17 -17 28 -14 11 -25 29 -25 41 0 18 -2 19 -10 7 -8
-13 -10 -13 -10 2 0 9 5 18 11 20 5 2 7 11 4 21 -4 9 -10 15 -14 13 -4 -3 -7
4 -7 15 0 10 4 19 8 19 4 0 8 -5 8 -11 0 -5 4 -8 9 -4 5 3 12 1 16 -5 3 -5 1
-10 -4 -10 -6 0 -11 -5 -11 -11 0 -8 4 -8 13 -2 6 6 42 20 79 32 52 17 66 26
61 38 -5 12 -1 14 15 9 24 -8 51 27 30 40 -7 4 -8 3 -4 -4 4 -7 2 -12 -4 -12
-6 0 -8 -5 -4 -11 4 -7 0 -9 -12 -5 -11 3 -26 1 -34 -4 -8 -5 -11 -10 -5 -10
5 0 0 -6 -11 -14 -25 -18 -104 -29 -104 -15 0 5 -3 8 -7 8 -19 -3 -33 2 -33
11 0 6 9 10 21 10 11 0 17 5 14 10 -4 7 -14 6 -28 -1 -16 -9 -22 -9 -25 0 -2
6 -12 11 -22 11 -10 0 -26 10 -36 23 -12 16 -15 17 -10 4 3 -10 6 -27 6 -36 0
-14 6 -17 25 -13 14 2 25 0 25 -6 0 -5 -11 -17 -25 -26 -14 -9 -25 -23 -25
-31 0 -21 -17 -18 -30 5 -9 17 -8 20 11 20 18 0 19 3 9 15 -6 8 -9 18 -6 24 7
11 -3 41 -14 41 -5 0 -10 -19 -12 -42 -2 -30 -8 -43 -18 -43 -8 0 -21 -4 -29
-9 -10 -7 -12 -4 -6 13 6 21 -8 30 -20 11 -15 -24 -24 -7 -10 20 19 37 19 39
-5 33 -11 -3 -20 0 -20 6 0 6 8 11 18 11 16 1 16 1 -1 11 -29 17 -42 -3 -24
-37 10 -21 12 -42 7 -74 -7 -39 -14 -31 -13 15 0 11 -63 13 -73 2 -7 -6 -34
17 -34 28 0 4 9 5 20 2 24 -6 37 10 21 26 -8 8 -11 8 -11 -1 0 -6 -7 -9 -15
-6 -8 4 -26 -1 -40 -10 -23 -15 -25 -15 -40 6 -8 12 -15 19 -15 15 0 -29 -17
-47 -46 -47 -12 0 -30 -7 -39 -16 -9 -9 -19 -13 -23 -10 -3 4 0 11 7 15 7 5
10 14 6 21 -5 8 2 10 24 7 23 -4 34 -1 41 13 14 26 12 40 -5 40 -8 0 -15 -7
-15 -15 0 -8 -6 -12 -14 -9 -8 3 -17 1 -21 -5 -3 -6 -14 -11 -25 -11 -13 0
-17 -5 -13 -20 4 -14 0 -20 -11 -20 -12 0 -16 9 -16 35 0 35 6 39 44 35 10 -1
15 3 12 8 -4 6 -17 9 -31 6 -19 -3 -23 -1 -19 11 3 8 9 13 13 11 4 -3 12 8 19
24 7 16 19 28 25 26 7 -1 9 -1 4 1 -4 3 -5 10 -1 16 3 7 -11 -6 -30 -28 -20
-22 -40 -56 -46 -75 -12 -45 1 -96 23 -92 11 2 15 -2 11 -12 -3 -8 -12 -12
-19 -10 -11 5 -13 -6 -12 -49 1 -33 -3 -60 -12 -70 -23 -29 -83 -21 -172 23
-93 46 -107 45 -215 -10 -33 -16 -75 -30 -95 -30 -39 0 -79 27 -71 48 2 7 -1
19 -8 26 -7 10 -8 16 0 21 12 8 14 105 1 105 -5 0 -12 10 -14 23 -4 17 -5 15
-5 -8 0 -60 -2 -71 -11 -56 -6 9 -11 10 -15 2 -11 -16 -26 -13 -20 4 4 8 12
15 20 15 8 0 14 8 14 18 0 13 -2 14 -9 4 -6 -10 -10 -7 -15 13 -8 32 1 46 15
25 9 -13 10 -13 6 0 -3 12 -18 14 -65 13 -35 -2 -62 2 -62 7 0 25 -26 6 -28
-20 -1 -16 2 -30 8 -30 5 0 10 7 10 15 0 25 14 17 29 -15 10 -23 18 -29 32
-25 11 4 19 2 19 -4 0 -6 -4 -11 -9 -11 -5 0 -13 -10 -17 -22 l-7 -23 -9 24
c-7 21 -12 23 -56 17 -36 -4 -42 -3 -23 4 15 7 21 15 17 26 -3 9 -6 23 -6 32
0 13 -3 12 -15 -4 -13 -17 -14 -17 -15 -1 0 9 -5 17 -11 17 -7 0 -9 -11 -6
-29 5 -23 2 -30 -16 -39 l-22 -10 25 -10 c23 -10 23 -11 4 -11 -12 -1 -25 8
-32 22 -9 20 -11 17 -12 -23 -2 -36 -3 -40 -9 -20 -7 24 -7 24 -20 5 -11 -17
-12 -14 -8 27 3 29 0 49 -7 52 -6 2 -4 5 4 5 8 0 24 -6 34 -14 25 -19 36 -19
36 1 0 9 -9 18 -20 21 -22 6 -26 18 -9 29 6 3 15 0 20 -7 6 -10 9 -8 9 10 0
17 -4 22 -16 17 -9 -3 -24 -6 -33 -6 -10 0 -28 -9 -41 -20 -27 -23 -32 -24
-49 -7 -11 10 -13 9 -8 -5 4 -12 1 -18 -8 -18 -8 0 -15 6 -15 14 0 27 -35 12
-40 -18 -3 -18 -13 -32 -27 -37 -21 -8 -22 -6 -17 27 4 28 2 35 -8 32 -9 -4
-12 -20 -10 -54 4 -55 -8 -53 -17 3 -10 61 -31 53 -31 -11 0 -31 5 -56 10 -56
6 0 10 6 10 13 1 6 7 1 15 -13 16 -29 20 -90 5 -90 -5 0 -7 13 -3 30 7 35 -3
40 -17 8 -8 -19 -9 -17 -4 11 4 23 3 31 -5 27 -6 -4 -11 -13 -11 -21 0 -7 -21
-21 -47 -31 -97 -35 -134 -54 -128 -64 4 -6 1 -9 -7 -8 -14 3 -80 -120 -74
-138 2 -6 0 -17 -6 -25 -8 -11 -9 -11 -5 2 5 14 0 16 -34 12 -46 -7 -65 6 -74
50 -13 59 -52 114 -98 136 -61 29 -107 37 -118 20 -7 -11 -8 -9 -7 6 2 11 -1
21 -7 22 -5 1 -10 -6 -9 -17 0 -10 -3 -17 -8 -14 -11 7 -10 42 2 49 15 9 12
35 -5 35 -9 0 -12 -6 -9 -17 5 -15 3 -15 -12 2 l-17 20 8 -20 c4 -11 9 -26 12
-32 3 -7 -2 -16 -11 -19 -21 -8 -35 4 -17 15 11 7 11 10 0 17 -7 4 -14 3 -17
-4 -2 -7 -11 -12 -19 -12 -9 0 -13 -6 -9 -15 3 -8 1 -15 -5 -15 -7 0 -9 16 -6
40 2 22 3 40 2 40 -18 0 -35 -16 -35 -32 0 -14 -5 -18 -16 -14 -9 3 -20 6 -25
6 -5 0 -9 5 -9 10 0 6 7 10 15 10 13 0 14 2 3 14 -11 12 -15 11 -25 -7 -13
-24 -1 -47 23 -47 8 0 14 -7 14 -15 0 -8 5 -15 10 -15 6 0 10 5 10 11 0 5 4 7
10 4 6 -3 1 -15 -11 -28 -12 -14 -18 -30 -15 -43 4 -16 0 -23 -15 -27 -16 -4
-18 -3 -9 8 8 9 8 15 0 20 -15 9 -12 25 5 25 13 0 14 4 3 23 -10 19 -13 20
-16 5 -4 -19 -22 -25 -22 -9 0 5 -10 11 -21 13 -24 3 -35 18 -44 61 -6 27 -7
28 -28 14 -12 -8 -24 -23 -25 -33 -3 -15 -1 -17 9 -6 7 6 17 12 21 12 14 0 8
-28 -7 -34 -8 -3 -15 -12 -15 -20 0 -8 -8 -14 -20 -13 -16 1 -19 7 -16 39 2
21 0 38 -5 38 -5 0 -9 -4 -9 -10 0 -5 -7 -10 -16 -10 -12 0 -15 6 -11 21 3 13
1 19 -6 16 -7 -2 -13 -19 -15 -38 -2 -18 -9 -37 -15 -42 -9 -5 -7 -11 5 -20
10 -8 13 -18 9 -26 -6 -10 -10 -9 -14 3 -9 23 -37 20 -37 -5 0 -15 -5 -20 -22
-17 -14 2 -22 -2 -21 -9 2 -7 -4 -10 -12 -6 -10 3 -13 12 -10 24 5 16 1 19
-27 20 -29 0 -30 1 -11 9 24 10 63 2 63 -12 0 -6 7 -5 15 2 8 7 15 19 15 26 0
8 7 14 16 14 8 0 13 4 10 8 -3 5 -20 6 -38 4 -28 -4 -30 -6 -13 -12 14 -5 5
-8 -27 -8 -60 0 -69 -6 -61 -42 4 -23 0 -34 -18 -50 -13 -10 -31 -19 -39 -19
-10 0 -8 4 6 12 17 10 19 15 9 34 l-12 23 -12 -27 c-7 -15 -15 -22 -19 -17 -9
14 -90 36 -102 29 -6 -3 -10 -16 -10 -28 0 -33 -11 -67 -21 -67 -14 0 -11 78
4 84 6 4 2 4 -10 2 -14 -2 -20 0 -17 9 7 17 -8 26 -26 15 -12 -7 -11 -12 3
-28 19 -21 10 -35 -28 -45 -18 -4 -18 -5 3 -6 12 0 22 -5 22 -10 0 -5 8 -12
17 -14 14 -4 12 -5 -4 -6 -20 -1 -23 -7 -25 -43 l-1 -43 -4 38 c-3 22 -10 37
-17 37 -8 0 -16 10 -20 23 -4 16 1 27 19 40 14 10 22 23 19 28 -3 6 -32 -18
-65 -52 -45 -48 -56 -66 -47 -76 15 -18 38 -16 61 5 16 13 19 14 15 2 -2 -8
-15 -20 -29 -27 -19 -10 -28 -9 -47 3 -26 17 -46 10 -22 -7 11 -8 10 -9 -7 -4
-13 3 -23 2 -23 -3 0 -6 -16 -26 -36 -46 -20 -20 -33 -36 -29 -36 3 0 -8 -12
-25 -26 -18 -16 -29 -33 -26 -41 3 -8 2 -11 -3 -8 -6 3 -18 -6 -28 -21 -10
-14 -26 -33 -35 -42 -10 -9 -18 -22 -18 -29 0 -7 -3 -13 -7 -13 -5 -1 -24 -24
-43 -52 -19 -27 -50 -70 -67 -94 -18 -24 -33 -49 -33 -54 0 -6 -5 -10 -11 -10
-5 0 -7 -4 -4 -10 3 -5 2 -10 -2 -10 -5 0 -17 -17 -28 -37 -11 -21 -23 -40
-26 -43 -24 -20 -170 -303 -203 -395 -8 -22 -26 -65 -39 -96 -14 -31 -23 -60
-20 -63 4 -3 1 -6 -5 -6 -7 0 -12 -10 -12 -22 0 -19 -2 -20 -11 -8 -9 13 -10
12 -5 -3 7 -21 -14 -107 -26 -107 -4 0 -8 -11 -8 -24 0 -38 -18 -76 -35 -76
-12 0 -15 6 -9 23 4 12 8 40 9 62 3 54 4 57 13 51 5 -3 9 9 8 27 -1 43 45 178
57 170 6 -3 7 -1 3 6 -6 10 23 106 42 135 3 6 7 16 8 23 3 21 141 297 191 383
100 171 253 386 396 556 88 105 349 361 462 455 319 262 662 453 1076 598 312
109 562 158 944 185 84 6 333 -4 465 -19z m-700 -845 c0 -5 -11 -10 -25 -10
-14 0 -25 5 -25 10 0 6 11 10 25 10 14 0 25 -4 25 -10z m-342 -36 c13 8 62 -3
62 -14 0 -4 -10 -5 -22 -3 -28 4 -36 -1 -75 -55 -17 -24 -33 -39 -36 -35 -3 5
5 22 19 38 15 18 21 31 14 33 -6 2 -18 -6 -27 -17 -12 -17 -18 -20 -29 -10
-16 13 -19 33 -3 24 5 -4 19 1 29 10 10 9 24 14 29 10 6 -3 11 0 11 8 0 8 -7
18 -16 21 -8 3 -12 11 -8 17 5 8 13 4 24 -11 10 -13 22 -20 28 -16z m52 26 c0
-5 -4 -10 -10 -10 -5 0 -10 5 -10 10 0 6 5 10 10 10 6 0 10 -4 10 -10z m160
-20 c0 -5 -4 -10 -10 -10 -5 0 -10 5 -10 10 0 6 5 10 10 10 6 0 10 -4 10 -10z
m955 0 c3 -5 1 -10 -4 -10 -6 0 -11 -7 -11 -15 0 -16 29 -21 31 -5 1 6 2 14 3
19 2 19 13 21 26 6 8 -10 9 -15 1 -15 -6 0 -11 -7 -11 -15 0 -8 -4 -15 -10
-15 -5 0 -10 -8 -10 -17 0 -14 6 -11 25 11 14 16 28 26 33 21 4 -4 1 -10 -5
-12 -7 -3 -13 -9 -13 -14 0 -6 -9 -19 -20 -31 -18 -20 -20 -20 -20 -3 0 17 -1
17 -20 0 -11 -10 -20 -13 -20 -7 0 7 -5 12 -11 12 -10 0 -39 24 -39 33 0 3 8
4 18 3 11 -1 17 6 17 19 0 33 27 57 40 35z m-65 -20 c0 -5 -2 -10 -4 -10 -3 0
-8 5 -11 10 -3 6 -1 10 4 10 6 0 11 -4 11 -10z m450 2 c0 -4 -9 -13 -20 -20
-22 -13 -27 -3 -8 16 14 14 28 16 28 4z m-250 -11 c0 -5 3 -17 7 -27 4 -12 2
-15 -8 -12 -8 3 -13 12 -11 21 1 8 -5 18 -15 20 -14 4 -13 5 5 6 12 0 22 -3
22 -8z m60 -28 c-11 -17 -11 -17 -6 0 3 10 6 24 7 30 0 9 2 9 5 0 3 -7 0 -20
-6 -30z m-1313 -20 c-3 -3 -11 -2 -17 2 -8 5 -7 11 2 22 12 15 13 14 16 -1 2
-10 1 -20 -1 -23z m183 28 c0 -6 -4 -13 -10 -16 -5 -3 -10 1 -10 9 0 9 5 16
10 16 6 0 10 -4 10 -9z m850 -17 c0 -8 -4 -14 -10 -14 -5 0 -10 9 -10 21 0 11
5 17 10 14 6 -3 10 -13 10 -21z m360 16 c0 -5 -7 -10 -15 -10 -8 0 -15 5 -15
10 0 6 7 10 15 10 8 0 15 -4 15 -10z m-1063 -22 c-3 -8 -6 -5 -6 6 -1 11 2 17
5 13 3 -3 4 -12 1 -19z m663 3 c0 -22 -29 -36 -44 -21 -7 7 -5 10 6 10 9 0 18
7 22 15 8 21 16 19 16 -4z m207 -13 c-3 -8 -6 -5 -6 6 -1 11 2 17 5 13 3 -3 4
-12 1 -19z m310 16 c-3 -3 -12 -4 -19 -1 -8 3 -5 6 6 6 11 1 17 -2 13 -5z
m-1400 -10 c-3 -3 -12 -4 -19 -1 -8 3 -5 6 6 6 11 1 17 -2 13 -5z m1233 -14
c-24 -15 -36 -11 -14 4 10 8 21 12 24 10 2 -3 -2 -9 -10 -14z m47 4 c-3 -3
-12 -4 -19 -1 -8 3 -5 6 6 6 11 1 17 -2 13 -5z m-1432 -33 c-9 -16 -25 -3 -18
15 4 10 9 12 15 6 6 -6 7 -15 3 -21z m65 25 c0 -2 -7 -6 -15 -10 -8 -3 -15 -1
-15 4 0 6 7 10 15 10 8 0 15 -2 15 -4z m97 -2 c-3 -3 -12 -4 -19 -1 -8 3 -5 6
6 6 11 1 17 -2 13 -5z m923 -3 c0 -5 -9 -7 -20 -4 -11 3 -20 7 -20 9 0 2 9 4
20 4 11 0 20 -4 20 -9z m370 -5 c0 -3 -4 -8 -10 -11 -5 -3 -10 -1 -10 4 0 6 5
11 10 11 6 0 10 -2 10 -4z m893 -49 c-3 -5 -10 -4 -15 1 -6 6 -7 16 -3 22 6 9
9 9 16 -1 4 -7 5 -17 2 -22z m-2433 13 c0 -5 -2 -10 -4 -10 -3 0 -8 5 -11 10
-3 6 -1 10 4 10 6 0 11 -4 11 -10z m1180 -6 c0 -8 -4 -12 -10 -9 -5 3 -10 10
-10 16 0 5 5 9 10 9 6 0 10 -7 10 -16z m-1286 -9 c4 -10 -1 -15 -16 -15 -17 0
-18 2 -8 15 7 8 14 15 15 15 2 0 5 -7 9 -15z m1243 9 c-3 -3 -12 -4 -19 -1 -8
3 -5 6 6 6 11 1 17 -2 13 -5z m343 -4 c0 -5 -5 -10 -11 -10 -5 0 -7 5 -4 10 3
6 8 10 11 10 2 0 4 -4 4 -10z m-2580 -7 c0 -5 -4 -15 -10 -23 -11 -18 -25 -7
-17 15 6 15 27 21 27 8z m355 -12 c-3 -6 -11 -8 -17 -5 -6 4 -5 9 3 15 16 10
23 4 14 -10z m1965 9 c0 -5 -5 -10 -11 -10 -5 0 -7 5 -4 10 3 6 8 10 11 10 2
0 4 -4 4 -10z m85 0 c3 -5 1 -10 -4 -10 -6 0 -11 5 -11 10 0 6 2 10 4 10 3 0
8 -4 11 -10z m1162 -6 c-3 -3 -12 -4 -19 -1 -8 3 -5 6 6 6 11 1 17 -2 13 -5z
m540 -6 c35 -13 46 -34 13 -25 -11 3 -20 1 -20 -4 0 -5 -5 -9 -11 -9 -6 0 -8
9 -4 20 5 14 2 20 -9 20 -9 0 -16 -7 -16 -16 0 -14 -3 -14 -15 -4 -13 11 -13
15 -3 21 17 12 26 11 65 -3z m-3977 -6 c0 -11 -37 -32 -44 -25 -11 11 -6 21
12 26 28 8 32 7 32 -1z m177 2 c-3 -3 -12 -4 -19 -1 -8 3 -5 6 6 6 11 1 17 -2
13 -5z m863 2 c0 -3 -4 -8 -10 -11 -5 -3 -10 -1 -10 4 0 6 5 11 10 11 6 0 10
-2 10 -4z m37 -2 c-3 -3 -12 -4 -19 -1 -8 3 -5 6 6 6 11 1 17 -2 13 -5z m2393
-4 c0 -5 -4 -10 -10 -10 -5 0 -10 5 -10 10 0 6 5 10 10 10 6 0 10 -4 10 -10z
m101 0 c5 0 9 -4 9 -9 0 -4 -11 -6 -25 -3 -14 2 -25 9 -25 14 0 6 7 7 16 4 9
-3 20 -6 25 -6z m-3411 -56 c0 -1 -9 -2 -20 -1 -13 1 -19 6 -15 15 3 7 5 21 5
30 0 11 6 6 15 -12 8 -15 15 -30 15 -32z m1885 46 c-3 -5 -11 -10 -16 -10 -6
0 -7 5 -4 10 3 6 11 10 16 10 6 0 7 -4 4 -10z m1316 -29 c-23 -23 -28 -12 -10
21 7 13 14 17 21 10 7 -7 3 -17 -11 -31z m-3318 8 c22 -25 23 -24 -33 -43 -34
-11 -41 -12 -27 -1 12 9 14 14 6 17 -8 3 -6 11 7 26 23 27 25 27 47 1z m159
-4 c6 -29 -7 -34 -15 -6 -4 17 0 31 9 31 1 0 4 -11 6 -25z m48 -6 c0 -11 -4
-17 -10 -14 -5 3 -10 15 -10 26 0 11 5 17 10 14 6 -3 10 -15 10 -26z m857 9
c-3 -8 -6 -5 -6 6 -1 11 2 17 5 13 3 -3 4 -12 1 -19z m2315 -13 c-4 -30 -2
-34 13 -29 15 6 15 4 4 -14 -18 -29 -1 -43 18 -14 9 12 20 22 25 22 5 0 -1
-13 -14 -30 -12 -16 -26 -30 -30 -30 -5 0 -11 14 -14 30 -4 17 -10 30 -14 30
-7 0 -5 23 6 58 7 23 10 12 6 -23z m-2262 15 c0 -5 -4 -10 -10 -10 -5 0 -10 5
-10 10 0 6 5 10 10 10 6 0 10 -4 10 -10z m470 0 c0 -5 -2 -10 -4 -10 -3 0 -8
5 -11 10 -3 6 -1 10 4 10 6 0 11 -4 11 -10z m370 -5 c14 -8 21 -14 15 -14 -5
0 -21 6 -35 14 -14 8 -20 14 -15 14 6 0 21 -6 35 -14z m1137 9 c-3 -3 -12 -4
-19 -1 -8 3 -5 6 6 6 11 1 17 -2 13 -5z m-3237 -14 c0 -5 -9 -10 -21 -10 -11
0 -17 5 -14 10 3 6 13 10 21 10 8 0 14 -4 14 -10z m30 -6 c0 -8 -4 -12 -10 -9
-5 3 -10 10 -10 16 0 5 5 9 10 9 6 0 10 -7 10 -16z m2880 12 c0 -2 -7 -7 -16
-10 -8 -3 -12 -2 -9 4 6 10 25 14 25 6z m296 -23 c-6 -6 -36 9 -36 18 0 5 9 4
20 -3 10 -7 18 -14 16 -15z m907 8 c3 -12 -3 -27 -14 -37 -26 -23 -37 -9 -14
17 17 17 17 22 5 29 -13 8 -13 10 1 10 9 0 19 -9 22 -19z m-4043 -1 c0 -5 -7
-10 -16 -10 -8 0 -12 5 -9 10 3 6 10 10 16 10 5 0 9 -4 9 -10z m1645 0 c3 -5
2 -10 -4 -10 -5 0 -13 5 -16 10 -3 6 -2 10 4 10 5 0 13 -4 16 -10z m1540 0 c3
-5 1 -10 -4 -10 -6 0 -11 5 -11 10 0 6 2 10 4 10 3 0 8 -4 11 -10z m585 1 c0
-5 -7 -11 -15 -15 -15 -5 -20 5 -8 17 9 10 23 9 23 -2z m-4047 -16 c4 -8 2
-17 -3 -20 -6 -4 -10 3 -10 14 0 25 6 27 13 6z m1447 5 c0 -5 -5 -10 -11 -10
-5 0 -7 5 -4 10 3 6 8 10 11 10 2 0 4 -4 4 -10z m2250 0 c0 -5 -4 -10 -10 -10
-5 0 -10 5 -10 10 0 6 5 10 10 10 6 0 10 -4 10 -10z m240 0 c0 -5 -4 -10 -10
-10 -5 0 -10 5 -10 10 0 6 5 10 10 10 6 0 10 -4 10 -10z m464 4 c16 -6 12 -24
-5 -24 -6 0 -7 5 -3 11 4 8 0 9 -15 4 -12 -4 -21 -2 -21 4 0 12 20 14 44 5z
m-765 -40 c-13 -16 -29 -18 -29 -4 0 6 8 10 18 11 10 0 12 3 5 6 -7 2 -13 9
-13 15 0 6 6 5 15 -2 12 -10 13 -16 4 -26z m191 32 c0 -3 -4 -8 -10 -11 -5 -3
-10 -1 -10 4 0 6 5 11 10 11 6 0 10 -2 10 -4z m-4010 -16 c0 -5 -4 -10 -9 -10
-6 0 -13 5 -16 10 -3 6 1 10 9 10 9 0 16 -4 16 -10z m290 0 c0 -5 -4 -10 -10
-10 -5 0 -10 5 -10 10 0 6 5 10 10 10 6 0 10 -4 10 -10z m104 -5 c-4 -8 -8
-15 -10 -15 -2 0 -4 7 -4 15 0 8 4 15 10 15 5 0 7 -7 4 -15z m221 5 c3 -5 1
-10 -4 -10 -6 0 -11 5 -11 10 0 6 2 10 4 10 3 0 8 -4 11 -10z m133 -15 c-11
-25 -19 -30 -31 -19 -8 9 15 44 30 44 10 0 10 -6 1 -25z m3027 15 c3 -6 -1 -7
-9 -4 -18 7 -21 14 -7 14 6 0 13 -4 16 -10z m-3735 -4 c0 -3 -4 -8 -10 -11 -5
-3 -10 -1 -10 4 0 6 5 11 10 11 6 0 10 -2 10 -4z m1572 -28 c-7 -7 -12 -8 -12
-2 0 14 12 26 19 19 2 -3 -1 -11 -7 -17z m2798 -3 c-13 -15 -30 -12 -30 6 0 6
4 8 9 4 5 -3 13 0 16 6 4 5 9 8 12 5 3 -3 0 -12 -7 -21z m140 15 c0 -5 -10
-10 -22 -9 -22 0 -22 1 -3 9 11 5 21 9 23 9 1 1 2 -3 2 -9z m-4640 -16 c0 -8
-5 -12 -10 -9 -6 4 -8 11 -5 16 9 14 15 11 15 -7z m770 8 c0 -5 -9 -17 -20
-27 -11 -10 -20 -13 -20 -7 0 7 5 12 10 12 6 0 10 7 10 15 0 8 5 15 10 15 6 0
10 -4 10 -8z m-682 -13 c-24 -14 -23 -33 2 -26 11 3 20 1 20 -4 0 -13 -34 -11
-48 3 -21 21 -14 38 16 38 23 -1 24 -2 10 -11z m512 -9 c0 -5 -4 -10 -10 -10
-5 0 -10 5 -10 10 0 6 5 10 10 10 6 0 10 -4 10 -10z m3865 0 c3 -5 -1 -10 -9
-10 -9 0 -16 5 -16 10 0 6 4 10 9 10 6 0 13 -4 16 -10z m75 0 c0 -5 -2 -10 -4
-10 -3 0 -8 5 -11 10 -3 6 -1 10 4 10 6 0 11 -4 11 -10z m-4320 -15 c-7 -9
-15 -13 -17 -11 -7 7 7 26 19 26 6 0 6 -6 -2 -15z m3970 6 c0 -5 -7 -11 -14
-14 -10 -4 -13 -1 -9 9 6 15 23 19 23 5z m565 0 c3 -5 0 -13 -6 -17 -7 -4 -9
-3 -5 4 3 5 0 13 -6 15 -9 4 -10 6 -1 6 6 1 14 -3 18 -8z m-4325 -5 c0 -2 -7
-6 -15 -10 -8 -3 -15 -1 -15 4 0 6 7 10 15 10 8 0 15 -2 15 -4z m3833 -3 c-7
-2 -13 -11 -13 -18 0 -8 -7 -11 -21 -8 -20 5 -20 6 3 18 13 7 28 13 33 13 6 0
4 -2 -2 -5z m162 -3 c3 -5 -1 -10 -9 -10 -9 0 -16 5 -16 10 0 6 4 10 9 10 6 0
13 -4 16 -10z m-3625 -10 c0 -5 -4 -10 -10 -10 -5 0 -10 5 -10 10 0 6 5 10 10
10 6 0 10 -4 10 -10z m3345 0 c3 -5 1 -10 -4 -10 -6 0 -11 5 -11 10 0 6 2 10
4 10 3 0 8 -4 11 -10z m162 4 c-3 -3 -12 -4 -19 -1 -8 3 -5 6 6 6 11 1 17 -2
13 -5z m278 -4 c3 -5 1 -10 -4 -10 -6 0 -11 5 -11 10 0 6 2 10 4 10 3 0 8 -4
11 -10z m75 6 c0 -2 -7 -6 -15 -10 -8 -3 -15 -1 -15 4 0 6 7 10 15 10 8 0 15
-2 15 -4z m-4770 -21 c-7 -9 -15 -13 -17 -11 -7 7 7 26 19 26 6 0 6 -6 -2 -15z
m122 3 c-18 -18 -15 -46 6 -50 14 -3 13 -5 -5 -10 -21 -6 -23 -3 -23 33 0 30
4 39 17 39 13 0 14 -3 5 -12z m4003 -17 c-6 -5 -25 10 -25 20 0 5 6 4 14 -3 8
-7 12 -15 11 -17z m95 19 c0 -5 -4 -10 -10 -10 -5 0 -10 5 -10 10 0 6 5 10 10
10 6 0 10 -4 10 -10z m377 -10 c4 -12 3 -13 -5 -1 -5 7 -15 10 -21 7 -6 -4
-11 -2 -11 4 0 17 33 8 37 -10z m-4417 -6 c0 -2 -7 -4 -15 -4 -8 0 -15 4 -15
10 0 5 7 7 15 4 8 -4 15 -8 15 -10z m380 6 c0 -5 -4 -10 -10 -10 -5 0 -10 5
-10 10 0 6 5 10 10 10 6 0 10 -4 10 -10z m3875 -19 c-3 -12 -10 -21 -15 -21
-4 0 -3 11 3 24 14 29 22 27 12 -3z m345 19 c0 -5 -5 -10 -11 -10 -5 0 -7 5
-4 10 3 6 8 10 11 10 2 0 4 -4 4 -10z m-4460 -10 c0 -5 -4 -10 -10 -10 -5 0
-10 5 -10 10 0 6 5 10 10 10 6 0 10 -4 10 -10z m4090 6 c0 -11 -19 -15 -25 -6
-3 5 1 10 9 10 9 0 16 -2 16 -4z m286 -26 c0 -11 -6 -20 -12 -20 -7 0 -10 8
-7 20 3 11 8 20 12 20 4 0 7 -9 7 -20z m-506 0 c0 -5 -2 -10 -4 -10 -3 0 -8 5
-11 10 -3 6 -1 10 4 10 6 0 11 -4 11 -10z m630 0 c0 -5 -4 -10 -10 -10 -5 0
-10 5 -10 10 0 6 5 10 10 10 6 0 10 -4 10 -10z m-4240 -10 c0 -5 -4 -10 -10
-10 -5 0 -10 5 -10 10 0 6 5 10 10 10 6 0 10 -4 10 -10z m3371 -13 c-10 -9
-11 -8 -5 6 3 10 9 15 12 12 3 -3 0 -11 -7 -18z m419 19 c0 -2 -7 -7 -16 -10
-8 -3 -12 -2 -9 4 6 10 25 14 25 6z m170 -6 c0 -5 -2 -10 -4 -10 -3 0 -8 5
-11 10 -3 6 -1 10 4 10 6 0 11 -4 11 -10z m-4517 -17 c-7 -2 -19 -2 -25 0 -7
3 -2 5 12 5 14 0 19 -2 13 -5z m4734 -25 c-3 -7 -5 -2 -5 12 0 14 2 19 5 13 2
-7 2 -19 0 -25z m-4827 12 c0 -5 -7 -10 -16 -10 -8 0 -12 5 -9 10 3 6 10 10
16 10 5 0 9 -4 9 -10z m70 -14 c0 -2 -13 -6 -29 -8 -17 -2 -28 -1 -25 4 5 8
54 12 54 4z m4235 -6 c-3 -5 -12 -10 -18 -10 -7 0 -6 4 3 10 19 12 23 12 15 0z
m195 0 c0 -5 -4 -10 -10 -10 -5 0 -10 5 -10 10 0 6 5 10 10 10 6 0 10 -4 10
-10z m-4517 -27 c-7 -2 -21 -2 -30 0 -10 3 -4 5 12 5 17 0 24 -2 18 -5z m227
-23 c0 -5 -2 -10 -4 -10 -3 0 -8 5 -11 10 -3 6 -1 10 4 10 6 0 11 -4 11 -10z
m-313 -62 c-3 -8 -6 -5 -6 6 -1 11 2 17 5 13 3 -3 4 -12 1 -19z m4843 -23
c-16 -19 -5 -32 30 -37 21 -2 34 -21 80 -115 77 -157 96 -174 240 -220 88 -28
120 -54 120 -98 0 -48 -17 -62 -123 -99 -53 -19 -112 -43 -129 -53 -37 -21
-72 -78 -111 -179 -36 -92 -45 -103 -88 -110 -50 -8 -80 22 -114 119 -48 136
-87 173 -235 221 -94 31 -130 60 -130 106 0 38 34 63 123 91 75 22 126 48 166
83 25 22 80 126 100 188 7 21 23 46 36 57 14 10 22 21 18 24 -6 6 15 37 24 37
3 0 0 -7 -7 -15z m-4410 -5 c-8 -5 -19 -10 -25 -10 -5 0 -3 5 5 10 8 5 20 10
25 10 6 0 3 -5 -5 -10z m-143 -42 c-3 -8 -6 -5 -6 6 -1 11 2 17 5 13 3 -3 4
-12 1 -19z m109 4 c12 -9 36 -53 54 -96 18 -44 43 -97 56 -118 29 -45 98 -91
137 -91 15 0 23 -3 17 -7 -14 -9 99 -41 114 -33 6 3 8 3 5 -1 -4 -4 4 -18 17
-31 29 -29 32 -77 5 -104 -10 -10 -56 -31 -102 -46 -162 -54 -179 -69 -244
-233 -27 -66 -42 -92 -61 -101 -34 -15 -69 -14 -84 4 -7 8 -17 12 -23 8 -6 -3
-7 -1 -3 5 10 16 -81 215 -113 246 -16 15 -70 42 -127 62 -125 45 -141 55
-150 99 -5 29 -2 41 16 60 12 13 34 26 48 30 15 4 61 20 104 36 78 31 153 91
144 116 -3 7 -1 12 5 10 6 -1 24 30 40 68 32 79 36 97 13 69 -14 -18 -15 -18
-4 4 6 12 14 20 19 18 4 -3 15 4 24 14 9 11 11 20 5 22 -5 2 7 4 29 5 23 1 47
-5 59 -15z m29 8 c3 -5 2 -10 -4 -10 -5 0 -13 5 -16 10 -3 6 -2 10 4 10 5 0
13 -4 16 -10z m3457 -27 c44 -46 48 -72 48 -300 l0 -215 -97 4 -98 4 -170 100
-170 101 -3 119 c-3 129 5 162 46 194 23 18 41 20 221 20 l197 0 26 -27z
m-3925 11 c-3 -3 -12 -4 -19 -1 -8 3 -5 6 6 6 11 1 17 -2 13 -5z m4753 -134
c6 -11 8 -20 6 -20 -3 0 -10 9 -16 20 -6 11 -8 20 -6 20 3 0 10 -9 16 -20z
m-2019 -92 c37 -13 92 -45 1009 -580 821 -479 944 -550 1015 -586 162 -82 204
-152 155 -260 -15 -34 -29 -47 -66 -64 -41 -18 -52 -19 -88 -8 -35 10 -243
128 -701 398 -60 35 -189 111 -285 167 -263 153 -449 263 -720 423 -135 80
-279 165 -321 189 l-76 43 -94 -53 c-52 -30 -179 -105 -284 -167 -104 -62
-309 -182 -455 -267 -389 -227 -376 -220 -620 -363 -124 -73 -268 -158 -320
-188 -52 -30 -122 -71 -155 -92 -92 -56 -170 -91 -212 -96 -79 -10 -153 61
-153 145 0 81 34 118 180 191 36 18 157 86 270 150 232 133 234 134 760 442
791 461 963 560 998 573 47 17 119 18 163 3z m2464 -68 c3 -6 -1 -7 -9 -4 -18
7 -21 14 -7 14 6 0 13 -4 16 -10z m-2205 -659 c92 -49 188 -120 209 -156 41
-70 82 -65 -554 -65 -453 0 -575 3 -575 13 0 25 41 78 85 110 25 17 82 54 128
80 l82 48 290 -3 c284 -3 291 -4 335 -27z m2967 -62 c9 -42 8 -49 -4 -45 -8 3
-19 6 -24 6 -5 0 -9 5 -9 11 0 5 5 7 10 4 6 -3 10 4 10 15 0 16 -4 20 -16 16
-8 -3 -13 -2 -11 2 2 4 7 15 10 25 11 31 24 18 34 -34z m20 -84 c2 -11 0 -14
-3 -7 -3 6 -14 12 -24 12 -10 0 -22 5 -25 11 -5 7 3 9 21 7 20 -2 30 -9 31
-23z m-17 -15 c0 -5 -4 -10 -10 -10 -5 0 -10 5 -10 10 0 6 5 10 10 10 6 0 10
-4 10 -10z m0 -24 c0 -3 -4 -8 -10 -11 -5 -3 -10 -1 -10 4 0 6 5 11 10 11 6 0
10 -2 10 -4z m-6630 -46 c-6 -11 -15 -20 -20 -20 -6 0 -5 9 2 20 7 11 16 20
21 20 4 0 3 -9 -3 -20z m-20 -60 c0 -25 -10 -50 -21 -50 -5 0 -4 12 2 27 7 19
7 29 0 31 -6 2 -11 8 -11 13 0 4 7 6 15 3 8 -4 15 -14 15 -24z m2480 -98 c59
-29 70 -65 70 -234 l0 -148 -402 0 c-222 0 -414 -3 -428 -6 -14 -4 128 86 315
199 365 221 375 225 445 189z m2075 -133 c138 -84 270 -163 295 -178 33 -18
212 -136 237 -156 2 -1 -215 -3 -482 -4 l-485 -2 0 189 c0 113 4 202 11 221
16 45 73 81 129 81 40 0 70 -15 295 -151z m-645 -69 l0 -180 -575 0 -575 0 0
180 0 180 575 0 575 0 0 -180z m-3527 -152 c9 -7 26 -35 37 -63 29 -68 55 -93
114 -110 57 -17 86 -40 86 -67 0 -38 -21 -57 -84 -78 -71 -23 -88 -38 -111
-95 -31 -79 -37 -85 -71 -85 -32 0 -48 20 -68 87 -11 35 -70 80 -129 97 -61
18 -79 34 -79 72 0 34 15 47 92 74 83 29 88 33 121 106 32 73 56 89 92 62z
m5992 -57 c37 -75 59 -96 131 -117 67 -19 86 -37 82 -77 -3 -34 -14 -42 -112
-79 -62 -24 -73 -37 -114 -136 -12 -27 -19 -32 -48 -32 -33 0 -36 3 -63 64
-36 78 -59 100 -128 122 -58 18 -76 39 -71 82 3 23 13 31 64 52 89 36 110 54
129 107 38 103 85 109 130 14z m-3967 -158 l142 -6 0 -208 0 -208 -510 -1
-510 0 0 215 0 215 368 0 c202 0 431 -3 510 -7z m1486 1 c14 -5 16 -37 16
-250 l0 -244 -575 0 -575 0 0 250 0 250 559 0 c308 0 566 -3 575 -6z m756
-229 l0 -145 -265 0 -265 0 0 145 0 145 265 0 265 0 0 -145z m490 -455 l0
-130 -182 0 c-101 0 -248 -2 -328 -4 -80 -2 -227 -2 -327 1 l-183 6 0 129 0
128 510 0 510 0 0 -130z m-2732 73 l142 -6 0 -98 0 -98 -487 -3 c-269 -2 -498
-1 -510 1 -22 3 -23 7 -23 107 l0 104 368 0 c202 0 431 -3 510 -7z m-1523
-158 c57 -114 76 -130 193 -169 80 -27 102 -46 102 -89 0 -34 -26 -54 -106
-81 -131 -44 -155 -68 -199 -191 -24 -65 -42 -85 -76 -85 -33 0 -47 17 -84
111 -35 90 -71 121 -180 160 -102 36 -125 52 -125 87 0 40 26 59 126 92 109
37 136 62 181 169 35 87 50 103 87 99 28 -3 35 -12 81 -103z m5070 0 c55 -110
78 -132 168 -160 93 -29 108 -37 122 -66 29 -54 -2 -83 -130 -123 -88 -28
-110 -48 -150 -133 -63 -136 -56 -128 -100 -128 -43 0 -38 -8 -100 127 -40 87
-61 104 -176 143 -85 29 -109 48 -109 86 0 38 28 62 97 83 123 39 163 73 202
174 35 88 49 103 90 100 35 -3 38 -6 86 -103z m-2537 87 l492 -2 0 -415 0
-415 -105 0 -105 0 0 -60 0 -60 -454 0 c-410 0 -455 2 -467 17 -11 13 -15 104
-17 477 l-2 461 82 0 c46 -1 305 -2 576 -3z m1422 -477 c0 -147 -4 -264 -9
-261 -4 3 -6 -6 -3 -19 4 -23 1 -21 -39 16 -54 49 -123 99 -140 99 -13 0 -122
-71 -156 -103 l-23 -20 0 276 0 276 185 1 185 1 0 -266z m-2290 -100 l0 -255
-100 0 -100 0 0 -60 0 -60 -398 0 -399 0 -11 25 c-8 18 -12 117 -12 315 l0
290 510 0 510 0 0 -255z m1842 0 l2 -250 -137 -3 -137 -3 0 256 0 256 135 -3
135 -3 2 -250z m258 -200 c0 -29 -4 -35 -22 -36 -13 -1 -36 -3 -53 -5 l-30 -3
35 30 c19 16 40 34 45 39 18 17 25 10 25 -25z m888 -414 c57 -58 46 -142 -25
-179 -16 -9 -514 -12 -1995 -12 -1676 0 -1981 -2 -2027 -14 -186 -50 -299
-270 -230 -451 30 -79 100 -154 182 -191 l62 -29 1995 -5 c1877 -5 1997 -6
2023 -22 33 -23 53 -82 38 -120 -5 -15 -30 -38 -54 -52 l-44 -26 -2024 2
-2024 3 -56 21 c-78 30 -106 46 -175 98 -202 152 -258 446 -134 704 69 143
192 245 350 286 47 13 344 15 2082 15 l2026 1 30 -29z m-252 -363 c-24 -38
-46 -128 -46 -188 0 -54 23 -144 41 -164 5 -6 9 -14 9 -18 0 -5 -843 -7 -1874
-6 l-1875 3 -27 21 c-57 42 -87 91 -92 148 -7 88 30 163 103 207 29 18 96 19
1903 19 l1872 0 -14 -22z"/>
<path d="M3985 6960 c-3 -5 -1 -10 4 -10 6 0 11 5 11 10 0 6 -2 10 -4 10 -3 0
-8 -4 -11 -10z"/>
<path d="M3775 6939 c-4 -6 -5 -12 -2 -15 2 -3 7 2 10 11 7 17 1 20 -8 4z"/>
<path d="M5310 6810 c-12 -7 -10 -9 7 -7 12 0 19 5 17 9 -6 10 -6 10 -24 -2z"/>
<path d="M4268 6773 c6 -2 18 -2 25 0 6 3 1 5 -13 5 -14 0 -19 -2 -12 -5z"/>
<path d="M5500 6741 c0 -6 -8 -11 -17 -12 -10 0 -13 -3 -6 -5 18 -8 49 11 34
20 -6 4 -11 2 -11 -3z"/>
<path d="M5563 6695 c0 -7 6 -11 14 -8 7 3 13 6 13 8 0 2 -6 5 -13 8 -8 3 -14
-1 -14 -8z"/>
<path d="M3424 6692 c4 -7 0 -24 -9 -38 -9 -14 -14 -33 -12 -42 3 -12 5 -10 6
6 1 16 5 21 14 16 6 -4 9 -4 5 1 -4 4 -3 17 3 27 8 15 8 23 -2 32 -9 8 -10 8
-5 -2z"/>
<path d="M3288 6683 c7 -3 16 -2 19 1 4 3 -2 6 -13 5 -11 0 -14 -3 -6 -6z"/>
<path d="M3440 6645 c0 -14 7 -21 22 -22 16 -2 19 0 9 6 -7 5 -17 15 -22 22
-7 11 -9 9 -9 -6z"/>
<path d="M2436 6617 c3 -10 9 -15 12 -12 3 3 0 11 -7 18 -10 9 -11 8 -5 -6z"/>
<path d="M5690 6625 c0 -10 39 -44 44 -37 2 4 -7 15 -20 25 -13 10 -24 15 -24
12z"/>
<path d="M5021 6603 c-7 -8 -11 -16 -8 -19 2 -2 10 2 17 11 17 20 9 27 -9 8z"/>
<path d="M5071 6611 c-12 -8 -9 -11 12 -17 16 -3 31 -4 34 0 4 3 -5 7 -18 7
-18 1 -15 3 11 9 35 7 35 7 5 9 -16 0 -37 -3 -44 -8z"/>
<path d="M3040 6600 c0 -6 7 -10 15 -10 8 0 15 2 15 4 0 2 -7 6 -15 10 -8 3
-15 1 -15 -4z"/>
<path d="M3495 6590 c10 -11 22 -17 26 -14 5 3 9 -1 9 -9 0 -8 7 -20 15 -27 8
-7 15 -21 15 -31 0 -18 35 -49 55 -49 7 0 7 3 0 8 -5 4 -10 14 -10 22 0 9 -7
14 -17 12 -11 -2 -16 2 -12 11 7 18 -30 62 -68 81 -31 16 -31 16 -13 -4z m105
-100 c0 -5 -5 -10 -11 -10 -5 0 -7 5 -4 10 3 6 8 10 11 10 2 0 4 -4 4 -10z"/>
<path d="M2728 6593 c6 -2 18 -2 25 0 6 3 1 5 -13 5 -14 0 -19 -2 -12 -5z"/>
<path d="M4269 6582 c-11 -14 -11 -15 0 -5 7 6 20 9 27 6 8 -3 14 -3 14 0 0
14 -30 14 -41 -1z"/>
<path d="M3010 6570 c0 -5 5 -10 10 -10 6 0 10 5 10 10 0 6 -4 10 -10 10 -5 0
-10 -4 -10 -10z"/>
<path d="M3390 6561 c7 -14 6 -21 -3 -24 -6 -2 -8 -8 -4 -13 4 -5 12 -2 16 5
6 10 10 10 16 2 4 -7 21 -11 37 -9 17 2 33 -2 35 -9 3 -7 -3 -9 -18 -6 -16 4
-20 2 -17 -8 9 -27 88 -19 88 10 0 9 -51 31 -74 31 -39 0 -65 12 -59 26 3 8
-1 14 -11 14 -13 0 -15 -4 -6 -19z"/>
<path d="M3430 6570 c0 -5 5 -10 10 -10 6 0 10 5 10 10 0 6 -4 10 -10 10 -5 0
-10 -4 -10 -10z"/>
<path d="M3476 6565 c-3 -8 -1 -15 4 -15 13 0 22 18 11 24 -5 3 -11 -1 -15 -9z"/>
<path d="M4475 6570 c-3 -5 -1 -10 4 -10 6 0 11 5 11 10 0 6 -2 10 -4 10 -3 0
-8 -4 -11 -10z"/>
<path d="M5755 6570 c3 -5 11 -10 16 -10 6 0 7 5 4 10 -3 6 -11 10 -16 10 -6
0 -7 -4 -4 -10z"/>
<path d="M3160 6561 c0 -9 -10 -11 -32 -6 -25 5 -29 4 -18 -4 8 -6 23 -11 32
-11 18 0 34 18 24 27 -3 4 -6 1 -6 -6z"/>
<path d="M4290 6556 c4 -4 16 -4 26 2 16 9 14 10 -8 9 -15 -1 -23 -6 -18 -11z"/>
<path d="M2915 6550 c-3 -6 1 -7 9 -4 18 7 21 14 7 14 -6 0 -13 -4 -16 -10z"/>
<path d="M2986 6545 c4 -8 8 -15 10 -15 2 0 4 7 4 15 0 8 -4 15 -10 15 -5 0
-7 -7 -4 -15z"/>
<path d="M3251 6551 c-8 -5 1 -8 27 -7 23 0 35 4 29 8 -16 10 -39 10 -56 -1z"/>
<path d="M5235 6549 c-4 -6 -5 -12 -2 -15 2 -3 7 2 10 11 7 17 1 20 -8 4z"/>
<path d="M1945 6541 c-3 -5 -2 -12 3 -15 5 -3 9 1 9 9 0 17 -3 19 -12 6z"/>
<path d="M2515 6540 c3 -5 8 -10 11 -10 2 0 4 5 4 10 0 6 -5 10 -11 10 -5 0
-7 -4 -4 -10z"/>
<path d="M2791 6534 c0 -11 3 -14 6 -6 3 7 2 16 -1 19 -3 4 -6 -2 -5 -13z"/>
<path d="M3055 6539 c-10 -15 3 -25 16 -12 7 7 7 13 1 17 -6 3 -14 1 -17 -5z"/>
<path d="M3342 6538 c-15 -15 -16 -38 -1 -38 5 0 8 4 4 9 -3 6 2 14 11 19 9 5
12 12 7 15 -5 4 -15 1 -21 -5z"/>
<path d="M4366 6535 c-3 -8 -12 -12 -21 -9 -10 4 -15 0 -15 -10 0 -15 3 -15
30 -1 17 9 30 20 30 25 0 15 -17 12 -24 -5z"/>
<path d="M2831 6535 c1 -19 18 -51 18 -35 0 8 -4 22 -9 30 -5 8 -9 11 -9 5z"/>
<path d="M2936 6524 c-9 -22 -8 -24 9 -24 8 0 15 9 15 20 0 24 -15 27 -24 4z"/>
<path d="M4410 6530 c0 -5 5 -10 10 -10 6 0 10 5 10 10 0 6 -4 10 -10 10 -5 0
-10 -4 -10 -10z"/>
<path d="M4520 6530 c0 -5 5 -10 10 -10 6 0 10 5 10 10 0 6 -4 10 -10 10 -5 0
-10 -4 -10 -10z"/>
<path d="M2430 6520 c0 -5 5 -10 11 -10 5 0 7 5 4 10 -3 6 -8 10 -11 10 -2 0
-4 -4 -4 -10z"/>
<path d="M3280 6515 c-8 -9 -8 -15 -2 -15 12 0 26 19 19 26 -2 2 -10 -2 -17
-11z"/>
<path d="M5451 6514 c0 -11 3 -14 6 -6 3 7 2 16 -1 19 -3 4 -6 -2 -5 -13z"/>
<path d="M4235 6510 c-3 -5 1 -10 9 -10 10 0 13 -6 10 -15 -4 -8 -1 -15 5 -15
12 0 14 11 5 34 -7 18 -20 21 -29 6z"/>
<path d="M5236 6505 c-3 -8 -1 -15 4 -15 6 0 10 7 10 15 0 8 -2 15 -4 15 -2 0
-6 -7 -10 -15z"/>
<path d="M5830 6510 c0 -5 5 -10 10 -10 6 0 10 5 10 10 0 6 -4 10 -10 10 -5 0
-10 -4 -10 -10z"/>
<path d="M2250 6499 c0 -5 5 -7 10 -4 6 3 10 8 10 11 0 2 -4 4 -10 4 -5 0 -10
-5 -10 -11z"/>
<path d="M2780 6503 c0 -15 18 -35 27 -32 5 2 1 12 -9 22 -10 9 -18 14 -18 10z"/>
<path d="M2911 6494 c0 -11 3 -14 6 -6 3 7 2 16 -1 19 -3 4 -6 -2 -5 -13z"/>
<path d="M2990 6497 c0 -9 -5 -17 -12 -17 -6 0 -2 -9 10 -20 24 -22 37 -26 25
-7 -4 6 -9 21 -10 31 -4 26 -13 34 -13 13z"/>
<path d="M3038 6503 c7 -3 16 -2 19 1 4 3 -2 6 -13 5 -11 0 -14 -3 -6 -6z"/>
<path d="M3220 6500 c-13 -8 -12 -10 3 -10 9 0 17 -5 17 -12 0 -6 3 -9 6 -5 3
3 2 12 -3 21 -6 10 -13 12 -23 6z"/>
<path d="M3362 6489 c-8 -12 -8 -19 -2 -19 5 0 10 5 10 10 0 6 11 10 25 10 14
0 25 4 25 9 0 16 -47 8 -58 -10z"/>
<path d="M4568 6503 c7 -3 16 -2 19 1 4 3 -2 6 -13 5 -11 0 -14 -3 -6 -6z"/>
<path d="M4857 6491 c-19 -13 -24 -20 -15 -24 8 -3 24 6 37 19 27 28 18 30
-22 5z"/>
<path d="M5170 6495 c0 -15 18 -40 24 -34 3 3 -1 14 -9 25 -8 10 -14 15 -15 9z"/>
<path d="M1876 6478 c3 -4 11 -5 19 -1 21 7 19 12 -4 10 -11 0 -18 -5 -15 -9z"/>
<path d="M3053 6476 c-13 -7 -20 -15 -17 -19 9 -9 65 14 58 24 -7 11 -13 10
-41 -5z"/>
<path d="M4720 6479 c0 -5 5 -7 10 -4 6 3 10 8 10 11 0 2 -4 4 -10 4 -5 0 -10
-5 -10 -11z"/>
<path d="M5892 6477 c16 -13 16 -15 0 -32 -16 -19 -16 -19 4 -2 19 16 22 15
53 -13 18 -17 35 -30 38 -30 13 0 -47 56 -79 73 -18 10 -25 12 -16 4z"/>
<path d="M2382 6466 c7 -8 15 -12 17 -11 5 6 -10 25 -20 25 -5 0 -4 -6 3 -14z"/>
<path d="M2851 6471 c-10 -7 -5 -11 18 -16 45 -10 47 -23 5 -31 l-37 -7 33
-13 c18 -8 47 -14 65 -14 18 0 35 -4 37 -10 2 -6 8 -6 18 0 13 9 13 10 0 10
-8 0 -27 7 -42 14 -16 8 -28 11 -28 5 0 -5 -7 -9 -16 -9 -14 0 -14 1 0 16 23
22 20 33 -10 40 -19 5 -22 9 -12 15 10 7 10 9 -2 9 -8 0 -21 -4 -29 -9z"/>
<path d="M2938 6473 c7 -3 16 -2 19 1 4 3 -2 6 -13 5 -11 0 -14 -3 -6 -6z"/>
<path d="M3115 6471 c3 -6 14 -9 25 -8 24 2 15 17 -11 17 -11 0 -18 -4 -14 -9z"/>
<path d="M3180 6470 c8 -5 22 -10 30 -10 13 0 13 1 0 10 -8 5 -22 10 -30 10
-13 0 -13 -1 0 -10z"/>
<path d="M4460 6470 c0 -5 5 -10 10 -10 6 0 10 5 10 10 0 6 -4 10 -10 10 -5 0
-10 -4 -10 -10z"/>
<path d="M5210 6470 c0 -6 7 -10 15 -10 8 0 15 2 15 4 0 2 -7 6 -15 10 -8 3
-15 1 -15 -4z"/>
<path d="M5438 6443 c4 -30 6 -34 12 -18 7 21 2 55 -9 55 -4 0 -5 -17 -3 -37z"/>
<path d="M5690 6470 c8 -5 20 -10 25 -10 6 0 3 5 -5 10 -8 5 -19 10 -25 10 -5
0 -3 -5 5 -10z"/>
<path d="M5818 6473 c7 -3 16 -2 19 1 4 3 -2 6 -13 5 -11 0 -14 -3 -6 -6z"/>
<path d="M2430 6460 c0 -5 7 -7 15 -4 8 4 15 8 15 10 0 2 -7 4 -15 4 -8 0 -15
-4 -15 -10z"/>
<path d="M2595 6459 c-4 -6 -5 -12 -2 -15 2 -3 7 2 10 11 7 17 1 20 -8 4z"/>
<path d="M4360 6455 c0 -8 4 -15 9 -15 5 0 14 7 21 15 10 13 9 15 -9 15 -12 0
-21 -6 -21 -15z"/>
<path d="M2554 6445 c15 -11 16 -15 5 -15 -8 0 -21 6 -29 13 -12 10 -12 9 -1
-5 12 -16 11 -18 -5 -19 -11 0 -14 -3 -8 -5 6 -3 23 0 39 6 22 9 25 13 15 25
-7 8 -18 15 -24 15 -6 0 -2 -7 8 -15z"/>
<path d="M2947 6453 c-12 -11 -8 -23 8 -23 8 0 15 7 15 15 0 16 -12 20 -23 8z"/>
<path d="M3091 6425 c0 -35 1 -37 10 -17 6 15 5 30 -1 40 -7 13 -9 8 -9 -23z"/>
<path d="M4587 6448 c-2 -8 1 -22 8 -32 18 -25 30 -1 12 24 -11 16 -16 17 -20
8z"/>
<path d="M4888 6453 c7 -3 16 -2 19 1 4 3 -2 6 -13 5 -11 0 -14 -3 -6 -6z"/>
<path d="M5268 6453 c6 -2 18 -2 25 0 6 3 1 5 -13 5 -14 0 -19 -2 -12 -5z"/>
<path d="M5370 6440 c0 -11 5 -20 10 -20 6 0 10 9 10 20 0 11 -4 20 -10 20 -5
0 -10 -9 -10 -20z"/>
<path d="M5475 6450 c-3 -5 -1 -10 4 -10 6 0 11 5 11 10 0 6 -2 10 -4 10 -3 0
-8 -4 -11 -10z"/>
<path d="M3611 6434 c0 -11 3 -14 6 -6 3 7 2 16 -1 19 -3 4 -6 -2 -5 -13z"/>
<path d="M4835 6440 c-3 -5 -2 -10 4 -10 5 0 13 5 16 10 3 6 2 10 -4 10 -5 0
-13 -4 -16 -10z"/>
<path d="M4480 6430 c0 -5 7 -10 15 -10 8 0 15 5 15 10 0 6 -7 10 -15 10 -8 0
-15 -4 -15 -10z"/>
<path d="M5295 6430 c-16 -7 -17 -9 -3 -9 9 -1 20 4 23 9 7 11 7 11 -20 0z"/>
<path d="M5510 6430 c0 -5 5 -10 11 -10 5 0 7 5 4 10 -3 6 -8 10 -11 10 -2 0
-4 -4 -4 -10z"/>
<path d="M5632 6426 c7 -8 15 -12 17 -11 5 6 -10 25 -20 25 -5 0 -4 -6 3 -14z"/>
<path d="M5740 6430 c0 -5 4 -10 9 -10 6 0 13 5 16 10 3 6 -1 10 -9 10 -9 0
-16 -4 -16 -10z"/>
<path d="M1833 6418 c3 -9 1 -19 -6 -22 -9 -3 -9 -5 0 -5 18 -1 27 19 13 32
-10 9 -12 8 -7 -5z"/>
<path d="M1990 6419 c0 -5 5 -7 10 -4 6 3 10 8 10 11 0 2 -4 4 -10 4 -5 0 -10
-5 -10 -11z"/>
<path d="M2985 6421 c-3 -5 -1 -12 5 -16 5 -3 10 1 10 9 0 18 -6 21 -15 7z"/>
<path d="M5324 6419 c-4 -7 -23 -9 -53 -5 -45 6 -46 6 -18 -9 16 -8 38 -14 50
-12 21 2 47 19 47 31 0 10 -19 6 -26 -5z"/>
<path d="M5792 6423 c-10 -4 -9 -9 4 -24 9 -10 22 -19 28 -19 6 0 3 5 -6 11
-27 15 -22 32 7 25 14 -4 25 -2 25 4 0 10 -35 12 -58 3z"/>
<path d="M5921 6413 c13 -15 11 -16 -16 -10 -24 6 -26 5 -12 -3 9 -6 27 -8 38
-5 16 5 18 10 8 21 -6 8 -16 14 -21 14 -6 0 -4 -7 3 -17z"/>
<path d="M2350 6410 c-13 -8 -12 -10 3 -10 9 0 17 5 17 10 0 12 -1 12 -20 0z"/>
<path d="M2397 6401 c-4 -17 -3 -21 5 -13 5 5 8 16 6 23 -3 8 -7 3 -11 -10z"/>
<path d="M2421 6401 c-1 -13 -11 -32 -23 -42 -27 -24 -14 -25 16 -1 17 13 20
23 15 42 l-7 25 -1 -24z"/>
<path d="M5548 6413 c6 -2 18 -2 25 0 6 3 1 5 -13 5 -14 0 -19 -2 -12 -5z"/>
<path d="M1765 6400 c-3 -5 4 -12 16 -15 12 -4 18 -12 15 -21 -5 -12 -2 -12
17 -2 20 11 20 13 4 16 -10 2 -16 9 -14 16 5 14 -30 19 -38 6z"/>
<path d="M2315 6400 c3 -5 8 -10 11 -10 2 0 4 5 4 10 0 6 -5 10 -11 10 -5 0
-7 -4 -4 -10z"/>
<path d="M3430 6400 c0 -5 5 -10 10 -10 6 0 10 5 10 10 0 6 -4 10 -10 10 -5 0
-10 -4 -10 -10z"/>
<path d="M5375 6392 c-10 -9 -15 -11 -11 -4 4 6 2 12 -3 12 -18 0 -12 -17 14
-46 13 -14 22 -30 19 -35 -3 -5 0 -9 6 -9 8 0 9 7 5 18 -4 9 -8 22 -8 29 0 7
-4 10 -9 7 -12 -8 -10 10 4 24 19 19 4 23 -17 4z"/>
<path d="M2277 6379 c4 -15 8 -17 19 -8 18 15 18 16 -5 22 -14 3 -17 0 -14
-14z"/>
<path d="M5554 6389 c-3 -6 -1 -16 6 -22 10 -9 12 -8 7 5 -3 9 -1 19 6 22 9 3
9 5 0 5 -6 1 -15 -4 -19 -10z"/>
<path d="M1890 6380 c0 -5 -8 -7 -17 -3 -14 4 -15 3 -7 -6 6 -6 18 -9 27 -5
18 7 23 24 7 24 -5 0 -10 -4 -10 -10z"/>
<path d="M1975 6380 c3 -5 8 -10 11 -10 2 0 4 5 4 10 0 6 -5 10 -11 10 -5 0
-7 -4 -4 -10z"/>
<path d="M2200 6382 c0 -12 19 -26 26 -19 2 2 -2 10 -11 17 -9 8 -15 8 -15 2z"/>
<path d="M2346 6377 c3 -10 9 -15 12 -12 3 3 0 11 -7 18 -10 9 -11 8 -5 -6z"/>
<path d="M3270 6380 c0 -5 5 -10 10 -10 6 0 10 5 10 10 0 6 -4 10 -10 10 -5 0
-10 -4 -10 -10z"/>
<path d="M5636 6376 c4 -9 -2 -16 -18 -19 -21 -4 -20 -4 5 -6 27 -1 38 21 17
34 -5 3 -7 0 -4 -9z"/>
<path d="M5958 6383 c6 -2 18 -2 25 0 6 3 1 5 -13 5 -14 0 -19 -2 -12 -5z"/>
<path d="M5997 6365 c-7 -14 -26 -35 -43 -45 -16 -11 -24 -20 -17 -20 6 0 15
5 18 10 3 6 17 10 31 10 17 0 24 5 24 20 0 31 18 24 25 -10 7 -32 14 -37 32
-19 8 8 13 8 17 0 4 -6 14 -11 23 -11 11 0 9 5 -8 19 -19 15 -27 17 -38 8 -11
-10 -13 -8 -8 8 4 14 -1 25 -18 38 -24 17 -24 17 -38 -8z"/>
<path d="M1712 6353 c-15 -16 -21 -22 -12 -15 9 6 19 10 21 8 2 -2 13 5 23 15
11 11 14 19 8 19 -6 0 -24 -12 -40 -27z"/>
<path d="M5489 6373 c-3 -19 3 -59 10 -65 4 -5 7 10 6 32 0 22 -3 40 -7 40 -5
0 -8 -3 -9 -7z"/>
<path d="M5750 6370 c20 -13 33 -13 25 0 -3 6 -14 10 -23 10 -15 0 -15 -2 -2
-10z"/>
<path d="M5910 6370 c0 -5 5 -10 10 -10 6 0 10 5 10 10 0 6 -4 10 -10 10 -5 0
-10 -4 -10 -10z"/>
<path d="M5670 6351 c0 -12 5 -21 10 -21 6 0 10 6 10 14 0 8 -4 18 -10 21 -5
3 -10 -3 -10 -14z"/>
<path d="M5956 6361 c-4 -5 -2 -12 3 -15 5 -4 12 -2 15 3 4 5 2 12 -3 15 -5 4
-12 2 -15 -3z"/>
<path d="M1916 6351 c-4 -7 -5 -15 -2 -18 9 -9 19 4 14 18 -4 11 -6 11 -12 0z"/>
<path d="M2127 6346 c-4 -10 -1 -13 8 -9 8 3 12 9 9 14 -7 12 -11 11 -17 -5z"/>
<path d="M2175 6350 c-3 -5 -1 -10 4 -10 6 0 11 5 11 10 0 6 -2 10 -4 10 -3 0
-8 -4 -11 -10z"/>
<path d="M5711 6344 c0 -11 3 -14 6 -6 3 7 2 16 -1 19 -3 4 -6 -2 -5 -13z"/>
<path d="M2245 6340 c-3 -5 -2 -10 4 -10 5 0 13 5 16 10 3 6 2 10 -4 10 -5 0
-13 -4 -16 -10z"/>
<path d="M2290 6340 c0 -5 5 -10 10 -10 6 0 10 5 10 10 0 6 -4 10 -10 10 -5 0
-10 -4 -10 -10z"/>
<path d="M5524 6334 c3 -9 6 -18 6 -20 0 -2 8 -4 18 -4 14 0 15 2 2 10 -13 9
-13 11 0 20 12 8 10 10 -9 10 -17 0 -22 -4 -17 -16z"/>
<path d="M5810 6341 c0 -6 5 -13 10 -16 6 -3 10 1 10 9 0 9 -4 16 -10 16 -5 0
-10 -4 -10 -9z"/>
<path d="M1845 6330 c3 -5 8 -10 11 -10 2 0 4 5 4 10 0 6 -5 10 -11 10 -5 0
-7 -4 -4 -10z"/>
<path d="M1707 6324 c-4 -4 -2 -13 4 -20 9 -11 6 -16 -12 -24 l-24 -11 25 7
c14 3 34 8 46 11 12 3 28 -2 37 -11 11 -12 18 -13 23 -5 4 7 -1 16 -10 21 -9
5 -13 14 -10 20 5 8 1 9 -9 5 -10 -4 -24 -10 -34 -14 -12 -5 -14 -3 -8 7 5 8
4 11 -3 6 -5 -3 -12 -1 -14 5 -2 5 -7 7 -11 3z"/>
<path d="M2045 6320 c4 -6 11 -8 16 -5 14 9 11 15 -7 15 -8 0 -12 -5 -9 -10z"/>
<path d="M2151 6313 c-7 -8 -11 -16 -8 -19 2 -2 10 2 17 11 17 20 9 27 -9 8z"/>
<path d="M5580 6321 c0 -16 41 -24 54 -11 8 9 6 11 -9 9 -11 -2 -26 0 -32 4
-7 5 -13 4 -13 -2z"/>
<path d="M1876 6305 c-17 -13 -17 -15 -2 -30 15 -15 16 -15 14 6 -4 29 18 36
27 8 7 -20 8 -21 17 -5 11 20 10 21 -17 29 -11 4 -28 0 -39 -8z"/>
<path d="M6002 6313 c-15 -6 -6 -23 14 -23 8 0 14 7 14 15 0 15 -6 17 -28 8z"/>
<path d="M1813 6303 c9 -2 23 -2 30 0 6 3 -1 5 -18 5 -16 0 -22 -2 -12 -5z"/>
<path d="M5808 6303 c7 -3 16 -2 19 1 4 3 -2 6 -13 5 -11 0 -14 -3 -6 -6z"/>
<path d="M1951 6284 c0 -11 3 -14 6 -6 3 7 2 16 -1 19 -3 4 -6 -2 -5 -13z"/>
<path d="M5866 6293 c7 -4 14 -17 17 -28 5 -16 5 -15 4 4 -1 14 -9 26 -17 28
-10 3 -11 2 -4 -4z"/>
<path d="M1630 6280 c0 -5 7 -7 15 -4 8 4 15 8 15 10 0 2 -7 4 -15 4 -8 0 -15
-4 -15 -10z"/>
<path d="M5575 6280 c3 -5 11 -10 16 -10 6 0 7 5 4 10 -3 6 -11 10 -16 10 -6
0 -7 -4 -4 -10z"/>
<path d="M1596 6245 c-11 -8 -15 -15 -9 -15 6 0 16 7 23 15 16 19 11 19 -14 0z"/>
<path d="M1640 6248 c0 -9 -7 -18 -15 -22 -22 -8 -18 -36 5 -36 11 0 20 6 20
14 0 8 4 16 9 18 5 2 3 12 -5 22 -11 16 -14 17 -14 4z"/>
<path d="M1758 6253 c18 -7 15 -23 -5 -23 -13 0 -14 -3 -6 -11 9 -9 15 -8 26
2 17 18 11 39 -11 38 -11 0 -12 -2 -4 -6z"/>
<path d="M1805 6250 c-3 -5 3 -10 14 -10 11 0 23 5 26 10 3 6 -3 10 -14 10
-11 0 -23 -4 -26 -10z"/>
<path d="M1690 6240 c-13 -8 -13 -10 2 -10 9 0 20 5 23 10 8 13 -5 13 -25 0z"/>
<path d="M5935 6240 c-3 -5 -1 -10 4 -10 6 0 11 5 11 10 0 6 -2 10 -4 10 -3 0
-8 -4 -11 -10z"/>
<path d="M1555 6210 c-8 -13 5 -13 25 0 13 8 13 10 -2 10 -9 0 -20 -4 -23 -10z"/>
<path d="M1680 6202 c0 -21 26 -49 37 -39 3 4 0 14 -8 23 -8 10 -13 20 -11 23
2 3 -1 7 -7 9 -6 2 -11 -5 -11 -16z"/>
<path d="M1565 6180 c3 -5 13 -10 21 -10 8 0 14 5 14 10 0 6 -9 10 -21 10 -11
0 -17 -4 -14 -10z"/>
<path d="M1770 6160 c0 -5 5 -10 10 -10 6 0 10 5 10 10 0 6 -4 10 -10 10 -5 0
-10 -4 -10 -10z"/>
<path d="M6002 6154 c-7 -8 -9 -14 -5 -14 18 0 53 13 53 19 0 13 -35 9 -48 -5z"/>
<path d="M1498 6073 c7 -3 16 -2 19 1 4 3 -2 6 -13 5 -11 0 -14 -3 -6 -6z"/>
<path d="M4338 6343 c-24 -6 -23 -23 2 -23 11 0 20 7 20 15 0 8 -1 14 -2 14
-2 -1 -11 -3 -20 -6z"/>
<path d="M2140 6170 c0 -5 9 -10 20 -10 11 0 20 5 20 10 0 6 -9 10 -20 10 -11
0 -20 -4 -20 -10z"/>
</g>
</svg>
